<svg xmlns="http://www.w3.org/2000/svg" xmlns:xlink="http://www.w3.org/1999/xlink" width="1920" zoomAndPan="magnify" viewBox="0 0 1440 809.999993" height="1080" preserveAspectRatio="xMidYMid meet" version="1.0"><defs><clipPath id="125a703b2a"><path d="M 615 130.535156 L 825 130.535156 L 825 358 L 615 358 Z M 615 130.535156 " clip-rule="nonzero"/></clipPath></defs><path fill="#f0ad33" d="M 959.78125 522.761719 C 977.773438 522.761719 987.796875 506.242188 992.21875 494.148438 C 992.21875 504.761719 1001.367188 519.816406 1016.984375 519.816406 C 1024.65625 519.816406 1029.964844 517.453125 1034.675781 511.257812 C 1038.300781 506.207031 1041.644531 499.5625 1044.25 493.699219 C 1047.21875 513.972656 1053.90625 524.238281 1060.921875 524.238281 C 1064.171875 524.238281 1069.480469 522.761719 1069.480469 520.410156 C 1069.480469 517.160156 1068.59375 515.390625 1068.59375 506.542969 C 1068.59375 473.507812 1100.449219 406.839844 1114.011719 406.839844 C 1117.257812 406.839844 1118.722656 409.203125 1118.722656 413.917969 C 1118.722656 427.492188 1109.285156 449.316406 1109.285156 478.222656 C 1109.285156 505.066406 1123.4375 519.816406 1137.894531 519.816406 C 1167.097656 519.816406 1198.058594 491.492188 1198.058594 470.550781 C 1198.058594 452.855469 1189.5 439.574219 1186.558594 439.574219 C 1184.496094 439.574219 1183.308594 441.050781 1183.308594 443.402344 C 1183.308594 472.308594 1166.503906 506.824219 1143.199219 506.824219 C 1137.007812 506.824219 1133.472656 499.746094 1133.472656 489.710938 C 1133.472656 464.042969 1142.621094 430.714844 1142.621094 420.679688 C 1142.621094 407.410156 1131.410156 396.199219 1117.546875 396.199219 C 1085.402344 396.199219 1064.753906 474.367188 1063.867188 478.5 C 1063.867188 428.65625 1070.058594 413.90625 1070.058594 402.101562 C 1070.058594 399.15625 1068.582031 396.199219 1061.503906 396.199219 C 1056.792969 396.199219 1050.007812 400.914062 1048.238281 407.699219 C 1046.46875 414.488281 1042.636719 432.484375 1042.636719 469.058594 C 1042.636719 470.574219 1042.664062 472.054688 1042.6875 473.496094 C 1042.445312 473.992188 1042.347656 474.367188 1042.347656 474.367188 C 1042.347656 474.367188 1027.890625 507.113281 1018.464844 507.113281 C 1013.75 507.113281 1011.386719 495.613281 1011.386719 479.386719 C 1016.984375 452.542969 1019.941406 439.5625 1019.941406 429.539062 C 1019.941406 419.515625 1008.140625 415.675781 1008.140625 415.675781 C 1008.140625 415.675781 1003.125 397.097656 981.300781 397.097656 C 952.398438 397.097656 924.082031 431.019531 924.082031 477.035156 C 924.082031 477.675781 924.105469 478.308594 924.117188 478.9375 C 919.984375 487.867188 910.351562 506.824219 903.144531 506.824219 C 895.933594 506.824219 891.339844 495.613281 891.339844 444.578125 C 897.242188 400.042969 905.492188 375.558594 905.492188 355.792969 C 905.492188 336.027344 893.109375 327.773438 884.554688 327.773438 C 876.59375 327.773438 876 334.257812 876 342.8125 C 876 352.253906 874.230469 414.488281 874.230469 415.382812 C 873.636719 413.613281 867.445312 395.035156 846.503906 395.035156 C 816.722656 395.035156 795.480469 424.824219 795.480469 464.648438 C 795.480469 469.242188 795.710938 473.484375 796.144531 477.421875 C 792.292969 485.542969 781.324219 507.125 773.65625 507.125 C 768.941406 507.125 766.578125 495.625 766.578125 479.398438 C 772.175781 452.554688 775.132812 439.574219 775.132812 429.550781 C 775.132812 419.527344 763.332031 415.6875 763.332031 415.6875 C 763.332031 415.6875 758.316406 397.109375 736.492188 397.109375 C 707.589844 397.109375 679.273438 431.03125 679.273438 477.046875 C 679.273438 477.6875 679.296875 478.320312 679.308594 478.949219 C 675.175781 487.882812 665.542969 506.835938 658.335938 506.835938 C 650.664062 506.835938 646.242188 500.046875 646.242188 490.910156 C 646.242188 463.777344 658.335938 436.628906 658.335938 419.226562 C 658.335938 404.1875 648.605469 392.671875 630.898438 392.671875 C 609.078125 392.671875 595.808594 436.628906 594.621094 441.632812 C 596.390625 420.984375 593.445312 400.332031 568.664062 400.332031 C 534.15625 400.332031 522.65625 474.671875 521.769531 482.039062 C 521.769531 456.675781 529.441406 421.867188 529.441406 411.25 C 529.441406 402.101562 525.019531 394.441406 512.632812 394.441406 C 509.386719 394.441406 504.964844 395.617188 504.964844 398.574219 C 504.964844 402.402344 505.847656 402.402344 505.847656 409.785156 C 505.847656 421.164062 501.511719 451.621094 500.273438 476.246094 C 497.039062 483.191406 485.308594 507.125 477.238281 507.125 C 472.527344 507.125 470.164062 495.625 470.164062 479.398438 C 475.761719 452.554688 478.71875 439.574219 478.71875 429.550781 C 478.71875 419.527344 466.914062 415.6875 466.914062 415.6875 C 466.914062 415.6875 461.898438 397.109375 440.074219 397.109375 C 411.175781 397.109375 382.855469 431.03125 382.855469 477.046875 C 382.855469 477.90625 382.882812 478.742188 382.90625 479.566406 C 376.820312 495.128906 371.597656 507.136719 357.496094 507.136719 C 338.324219 507.136719 333.902344 478.816406 308.238281 457.875 C 308.238281 457.875 373.125 433.101562 372.242188 363.476562 C 371.648438 313.039062 343.632812 292.386719 320.632812 292.386719 C 274.625 292.386719 252.507812 393.859375 251.320312 399.460938 C 251.320312 397.980469 253.089844 370.847656 253.089844 354.328125 C 253.089844 316.574219 236.574219 298.578125 209.140625 298.578125 C 169.371094 298.578125 100.363281 363.476562 100.363281 411.261719 C 100.363281 439.875 121.59375 453.4375 142.542969 453.4375 C 176.75 453.4375 205.953125 412.4375 205.953125 392.078125 C 205.953125 388.25 203.894531 384.710938 201.53125 384.710938 C 199.167969 384.710938 197.992188 386.480469 192.6875 397.980469 C 187.085938 410.074219 164.960938 442.820312 144.023438 442.820312 C 129.871094 442.820312 121.90625 435.453125 121.90625 418.933594 C 121.90625 380.589844 175.589844 307.136719 208.328125 307.136719 C 223.960938 307.136719 229.558594 321.882812 229.558594 357.867188 C 229.558594 397.691406 218.351562 464.9375 218.351562 508.894531 C 218.351562 530.128906 225.136719 539.570312 231.328125 539.570312 C 236.042969 539.570312 246.367188 533.375 246.367188 527.472656 C 246.367188 523.339844 241.351562 516.554688 241.351562 504.167969 C 241.351562 495.613281 242.523438 472.609375 248.136719 449.015625 C 266.710938 371.441406 295.914062 305.0625 317.445312 305.0625 C 330.132812 305.0625 345.460938 320.40625 345.460938 363.769531 C 345.460938 424.824219 300.335938 447.246094 300.335938 447.246094 C 300.335938 447.246094 293.550781 444.300781 282.34375 444.300781 C 271.132812 444.300781 261.996094 447.839844 261.996094 454.335938 C 261.996094 460.832031 267.304688 463.777344 274.089844 463.777344 C 280.875 463.777344 289.722656 462.296875 289.722656 462.296875 C 315.375 491.503906 317.15625 525.71875 352.25 525.71875 C 368.933594 525.71875 379.414062 511.949219 386.082031 497.199219 C 392.585938 515.644531 407.746094 522.773438 418.601562 522.773438 C 436.597656 522.773438 446.617188 506.253906 451.042969 494.160156 C 451.042969 504.773438 460.191406 519.828125 475.808594 519.828125 C 483.480469 519.828125 488.789062 517.464844 493.5 511.269531 C 496.007812 507.78125 498.371094 503.527344 500.46875 499.296875 C 502.03125 516.457031 507.253906 523.074219 512.671875 523.074219 C 524.765625 523.074219 529.1875 516.882812 529.1875 513.039062 C 529.1875 492.984375 545.703125 410.101562 566.933594 410.101562 C 571.355469 410.101562 573.71875 413.042969 573.71875 420.714844 C 573.71875 441.367188 565.464844 463.195312 565.464844 492.402344 C 565.464844 502.132812 565.464844 509.515625 570.179688 516.882812 C 572.832031 521.015625 579.027344 522.785156 584.636719 522.785156 C 587.289062 522.785156 589.652344 520.128906 589.652344 517.765625 C 589.652344 514.226562 588.476562 508.324219 588.476562 501.539062 C 588.476562 471.15625 616.492188 404.199219 631.238281 404.199219 C 634.777344 404.199219 636.546875 406.257812 636.546875 410.101562 C 636.546875 430.15625 622.089844 448.445312 622.089844 484.136719 C 622.089844 503.597656 635.359375 519.828125 653.0625 519.828125 C 661.617188 519.828125 668.984375 517.464844 673.710938 511.269531 C 676.824219 506.933594 679.734375 501.417969 682.132812 496.242188 C 688.433594 515.429688 703.957031 522.773438 714.996094 522.773438 C 732.988281 522.773438 743.011719 506.253906 747.433594 494.160156 C 747.433594 504.773438 756.582031 519.828125 772.203125 519.828125 C 779.871094 519.828125 785.179688 517.464844 789.894531 511.269531 C 793.539062 506.179688 796.910156 499.480469 799.527344 493.578125 C 807.003906 516.191406 823.507812 522.773438 837.371094 522.773438 C 856.828125 522.773438 873.648438 490.621094 874.535156 476.753906 C 874.535156 501.527344 886.03125 522.179688 899.894531 522.179688 C 908.160156 522.179688 913.757812 517.464844 918.472656 511.257812 C 921.585938 506.921875 924.492188 501.40625 926.894531 496.230469 C 933.195312 515.414062 948.714844 522.773438 959.753906 522.773438 Z M 983.964844 408.898438 C 989.5625 408.898438 995.769531 413.917969 997.234375 421.589844 C 997.234375 432.207031 993.695312 446.359375 990.75 463.765625 C 986.039062 490.316406 971.292969 510.664062 962.433594 510.664062 C 955.355469 510.664062 949.164062 502.398438 949.164062 482.050781 C 949.164062 447.535156 966.273438 408.898438 983.964844 408.898438 Z M 449.5625 463.765625 C 444.851562 490.316406 430.101562 510.664062 421.246094 510.664062 C 414.167969 510.664062 407.976562 502.398438 407.976562 482.050781 C 407.976562 447.535156 425.085938 408.898438 442.777344 408.898438 C 448.375 408.898438 454.578125 413.917969 456.046875 421.589844 C 456.046875 432.207031 452.507812 446.359375 449.5625 463.765625 Z M 745.96875 463.765625 C 741.253906 490.316406 726.507812 510.664062 717.648438 510.664062 C 710.574219 510.664062 704.378906 502.398438 704.378906 482.050781 C 704.378906 447.535156 721.492188 408.898438 739.183594 408.898438 C 744.78125 408.898438 750.984375 413.917969 752.449219 421.589844 C 752.449219 432.207031 748.914062 446.359375 745.96875 463.765625 Z M 839.757812 508.300781 C 829.140625 508.300781 820.296875 494.148438 820.296875 465.824219 C 820.296875 431.902344 831.796875 407.421875 849.195312 407.421875 C 861.289062 407.421875 868.65625 423.347656 868.65625 450.191406 C 868.65625 477.035156 851.546875 508.300781 839.757812 508.300781 Z M 839.757812 508.300781 " fill-opacity="1" fill-rule="nonzero"/><path fill="#f0ad33" d="M 469.398438 633.421875 L 425.207031 588.90625 L 457.414062 559.019531 C 460.214844 556.425781 462.601562 554.402344 464.578125 552.949219 C 466.550781 551.496094 468.550781 550.402344 470.5625 549.675781 C 472.585938 548.949219 475.046875 548.539062 477.953125 548.429688 L 477.953125 543.132812 L 438.585938 543.132812 L 438.585938 548.429688 L 441.070312 548.429688 C 443.25 548.429688 444.777344 548.816406 445.660156 549.59375 C 446.546875 550.367188 446.980469 551.640625 446.980469 553.410156 C 446.980469 555.6875 446.121094 557.917969 444.414062 560.097656 C 442.703125 562.28125 440.136719 565.03125 436.707031 568.351562 L 411.03125 592.941406 L 410.253906 592.941406 L 410.253906 564.460938 C 410.253906 560.316406 410.484375 557.070312 410.957031 554.730469 C 411.417969 552.390625 412.714844 550.753906 414.847656 549.820312 C 416.96875 548.890625 420.421875 548.417969 425.195312 548.417969 L 425.195312 543.121094 L 378.046875 543.121094 L 378.046875 548.417969 C 382.917969 548.417969 386.394531 548.890625 388.480469 549.820312 C 390.550781 550.753906 391.847656 552.390625 392.367188 554.730469 C 392.890625 557.070312 393.144531 560.257812 393.144531 564.304688 L 393.144531 624.378906 C 393.144531 628.949219 392.855469 632.34375 392.285156 634.570312 C 391.714844 636.800781 390.394531 638.28125 388.320312 639.007812 C 386.25 639.734375 382.820312 640.097656 378.046875 640.097656 L 378.046875 645.394531 L 425.050781 645.394531 L 425.050781 640.097656 C 420.589844 640.097656 417.292969 639.6875 415.160156 638.851562 C 413.03125 638.027344 411.683594 636.488281 411.113281 634.257812 C 410.546875 632.027344 410.253906 628.730469 410.253906 624.367188 L 410.253906 597.4375 L 411.503906 597.4375 L 424.878906 610.976562 C 430.066406 616.066406 434.246094 620.210938 437.410156 623.421875 C 440.570312 626.632812 442.851562 629.261719 444.257812 631.273438 C 445.660156 633.300781 446.351562 635.140625 446.351562 636.800781 C 446.351562 637.941406 445.855469 638.777344 444.875 639.285156 C 443.890625 639.808594 442.355469 640.0625 440.28125 640.0625 L 437.480469 640.0625 L 437.480469 645.359375 L 485.417969 645.359375 L 485.417969 640.0625 C 481.6875 640.0625 478.730469 639.539062 476.550781 638.511719 C 474.367188 637.480469 471.980469 635.757812 469.386719 633.371094 Z M 469.398438 633.421875 " fill-opacity="1" fill-rule="nonzero"/><path fill="#f0ad33" d="M 557.238281 635.203125 C 556.039062 635.976562 554.71875 636.367188 553.277344 636.367188 C 551.617188 636.367188 550.417969 635.894531 549.703125 634.960938 C 548.976562 634.027344 548.609375 631.953125 548.609375 628.730469 L 548.609375 593.863281 C 548.609375 585.5625 546.585938 579.488281 542.539062 575.648438 C 538.492188 571.804688 532.011719 569.890625 523.09375 569.890625 C 517.382812 569.890625 512.429688 570.691406 508.222656 572.304688 C 504.019531 573.914062 500.785156 576.035156 498.492188 578.691406 C 496.214844 581.332031 495.0625 584.109375 495.0625 587.015625 C 495.0625 589.925781 495.863281 592.046875 497.476562 593.402344 C 499.085938 594.75 500.773438 595.425781 502.527344 595.425781 C 504.914062 595.425781 506.832031 594.785156 508.285156 593.476562 C 509.738281 592.179688 510.464844 590.179688 510.464844 587.488281 C 510.464844 582.824219 511.058594 579.625 512.257812 577.914062 C 513.445312 576.207031 516.074219 575.34375 520.125 575.34375 C 524.484375 575.34375 527.671875 576.640625 529.695312 579.234375 C 531.71875 581.828125 532.726562 586.445312 532.726562 593.085938 L 532.726562 600.25 C 529.925781 601.085938 526.761719 601.960938 523.238281 602.890625 C 519.710938 603.824219 516.101562 604.941406 512.417969 606.238281 C 508.734375 607.535156 505.339844 609.171875 502.226562 611.144531 C 499.113281 613.121094 496.589844 615.558594 494.675781 618.464844 C 492.761719 621.375 491.792969 624.949219 491.792969 629.203125 C 491.792969 634.597656 493.476562 638.851562 496.84375 641.964844 C 500.214844 645.078125 504.855469 646.628906 510.769531 646.628906 C 514.1875 646.628906 517.117188 646.21875 519.566406 645.382812 C 522 644.558594 524.292969 643.332031 526.410156 641.722656 C 528.53125 640.109375 530.796875 638.269531 533.1875 636.195312 L 533.914062 636.195312 C 534.457031 639.296875 535.304688 641.710938 536.445312 643.429688 C 537.789062 645.453125 540.589844 646.460938 544.84375 646.460938 C 549.410156 646.460938 552.984375 645.503906 555.578125 643.578125 C 558.171875 641.660156 560.765625 638.824219 563.359375 635.09375 L 560.714844 632.292969 C 559.578125 633.433594 558.402344 634.390625 557.214844 635.179688 Z M 525.964844 635.433594 C 523.320312 636.679688 520.753906 637.296875 518.257812 637.296875 C 515.144531 637.296875 512.707031 636.230469 510.9375 634.109375 C 509.167969 631.992188 508.296875 628.996094 508.296875 625.15625 C 508.296875 621.3125 509.410156 618.015625 511.640625 615.582031 C 513.871094 613.144531 516.828125 611.167969 520.511719 609.667969 C 524.195312 608.164062 528.265625 606.84375 532.726562 605.703125 L 532.726562 630.910156 C 530.410156 632.886719 528.15625 634.390625 525.953125 635.433594 Z M 525.964844 635.433594 " fill-opacity="1" fill-rule="nonzero"/><path fill="#f0ad33" d="M 614.90625 569.441406 C 612.203125 569.441406 609.851562 570.097656 607.828125 571.394531 C 605.804688 572.691406 603.804688 574.582031 601.84375 577.078125 C 599.867188 579.5625 597.542969 582.675781 594.839844 586.421875 L 594.222656 586.421875 L 594.222656 570.386719 L 588.925781 570.386719 L 568.070312 575.054688 L 568.070312 580.191406 C 569.730469 579.988281 571.34375 579.878906 572.894531 579.878906 C 575.597656 579.878906 577.21875 580.605469 577.800781 582.058594 C 578.371094 583.511719 578.664062 585.632812 578.664062 588.445312 L 578.664062 629.6875 C 578.664062 632.597656 578.433594 634.828125 577.960938 636.378906 C 577.488281 637.929688 576.457031 638.996094 574.84375 639.566406 C 573.234375 640.132812 570.726562 640.425781 567.296875 640.425781 L 567.296875 645.40625 L 609.320312 645.40625 L 609.320312 640.425781 C 605.585938 640.425781 602.628906 640.148438 600.449219 639.566406 C 598.269531 638.996094 596.742188 637.878906 595.855469 636.21875 C 594.972656 634.558594 594.535156 632.125 594.535156 628.898438 L 594.535156 594.503906 C 596.402344 591.707031 598.402344 589.160156 600.523438 586.882812 C 602.644531 584.605469 604.546875 583.464844 606.207031 583.464844 C 606.933594 583.464844 607.78125 583.925781 608.773438 584.871094 C 609.753906 585.804688 610.957031 586.761719 612.347656 587.753906 C 613.753906 588.738281 615.378906 589.234375 617.257812 589.234375 C 619.230469 589.234375 620.988281 588.457031 622.550781 586.894531 C 624.101562 585.34375 624.890625 582.847656 624.890625 579.429688 C 624.890625 576.316406 624.089844 573.878906 622.480469 572.109375 C 620.867188 570.351562 618.359375 569.46875 614.929688 569.46875 Z M 614.90625 569.441406 " fill-opacity="1" fill-rule="nonzero"/><path fill="#f0ad33" d="M 685.78125 627.96875 C 683.867188 629.734375 681.527344 631.128906 678.777344 632.171875 C 676.027344 633.214844 672.574219 633.722656 668.429688 633.722656 C 664.066406 633.722656 660.128906 632.65625 656.601562 630.535156 C 653.074219 628.414062 650.277344 625.09375 648.191406 620.574219 C 646.242188 616.332031 645.222656 610.953125 645.101562 604.46875 L 693.789062 604.46875 C 693.476562 593.257812 690.628906 584.703125 685.234375 578.789062 C 679.84375 572.871094 672.679688 569.914062 663.761719 569.914062 C 657.4375 569.914062 651.683594 571.320312 646.496094 574.121094 C 641.308594 576.921875 637.152344 581.175781 634.050781 586.882812 C 630.9375 592.589844 629.386719 599.800781 629.386719 608.515625 C 629.386719 617.230469 630.816406 623.847656 633.664062 629.601562 C 636.511719 635.359375 640.507812 639.699219 645.648438 642.59375 C 650.785156 645.503906 656.675781 646.957031 663.316406 646.957031 C 667.882812 646.957031 671.796875 646.363281 675.070312 645.164062 C 678.339844 643.976562 681.140625 642.339844 683.464844 640.253906 C 685.804688 638.183594 687.851562 635.773438 689.609375 633.019531 C 691.378906 630.269531 692.976562 627.445312 694.433594 624.539062 L 691.160156 622.050781 C 689.5 624.234375 687.707031 626.210938 685.792969 627.96875 Z M 649.050781 583.136719 C 651.695312 578.570312 655.824219 576.289062 661.425781 576.289062 C 664.855469 576.289062 667.628906 577.273438 669.75 579.246094 C 671.871094 581.222656 673.457031 583.863281 674.5 587.1875 C 675.527344 590.507812 676.109375 594.191406 676.207031 598.238281 L 645.234375 598.238281 C 645.660156 591.839844 646.917969 586.808594 649.039062 583.136719 Z M 649.050781 583.136719 " fill-opacity="1" fill-rule="nonzero"/><path fill="#f0ad33" d="M 760.484375 627.96875 C 758.570312 629.734375 756.230469 631.128906 753.480469 632.171875 C 750.730469 633.214844 747.277344 633.722656 743.132812 633.722656 C 738.769531 633.722656 734.832031 632.65625 731.304688 630.535156 C 727.78125 628.414062 724.980469 625.09375 722.894531 620.574219 C 720.945312 616.332031 719.925781 610.953125 719.804688 604.46875 L 768.492188 604.46875 C 768.179688 593.257812 765.332031 584.703125 759.9375 578.789062 C 754.546875 572.871094 747.386719 569.914062 738.46875 569.914062 C 732.140625 569.914062 726.386719 571.320312 721.199219 574.121094 C 716.011719 576.921875 711.855469 581.175781 708.753906 586.882812 C 705.640625 592.589844 704.089844 599.800781 704.089844 608.515625 C 704.089844 617.230469 705.519531 623.847656 708.367188 629.601562 C 711.214844 635.359375 715.214844 639.699219 720.351562 642.59375 C 725.488281 645.503906 731.378906 646.957031 738.019531 646.957031 C 742.585938 646.957031 746.5 646.363281 749.773438 645.164062 C 753.042969 643.976562 755.84375 642.339844 758.171875 640.253906 C 760.507812 638.183594 762.554688 635.773438 764.3125 633.019531 C 766.082031 630.269531 767.683594 627.445312 769.136719 624.539062 L 765.863281 622.050781 C 764.203125 624.234375 762.410156 626.210938 760.496094 627.96875 Z M 723.757812 583.136719 C 726.398438 578.570312 730.53125 576.289062 736.128906 576.289062 C 739.558594 576.289062 742.332031 577.273438 744.453125 579.246094 C 746.574219 581.222656 748.160156 583.863281 749.203125 587.1875 C 750.234375 590.507812 750.816406 594.191406 750.910156 598.238281 L 719.9375 598.238281 C 720.363281 591.839844 721.625 586.808594 723.746094 583.136719 Z M 723.757812 583.136719 " fill-opacity="1" fill-rule="nonzero"/><path fill="#f0ad33" d="M 897.191406 635.054688 C 896.78125 633.140625 896.574219 630.621094 896.574219 627.507812 L 896.574219 597.003906 C 896.574219 587.355469 894.660156 580.421875 890.820312 576.230469 C 886.976562 572.023438 881.792969 569.929688 875.261719 569.929688 C 870.800781 569.929688 866.523438 571.089844 862.429688 573.429688 C 858.332031 575.769531 854.199219 579.066406 850.054688 583.320312 L 849.378906 583.320312 C 848.070312 579.746094 846.15625 576.761719 843.597656 574.375 C 840.433594 571.417969 836.15625 569.941406 830.753906 569.941406 C 825.347656 569.941406 820.867188 571.238281 816.976562 573.832031 C 813.085938 576.421875 809.171875 579.488281 805.222656 583.015625 L 804.445312 583.015625 L 804.445312 570.414062 L 799.308594 570.414062 L 778.453125 574.921875 L 778.453125 580.058594 C 780.003906 579.851562 781.410156 579.746094 782.660156 579.746094 C 784.839844 579.746094 786.441406 580.179688 787.480469 581.066406 C 788.511719 581.949219 789.03125 583.839844 789.03125 586.75 L 789.03125 629.238281 C 789.03125 632.246094 788.828125 634.558594 788.414062 636.160156 C 788.003906 637.769531 787.035156 638.886719 785.53125 639.503906 C 784.027344 640.121094 781.617188 640.4375 778.296875 640.4375 L 778.296875 645.417969 L 816.417969 645.417969 L 816.417969 640.4375 C 813.207031 640.4375 810.757812 640.121094 809.097656 639.503906 C 807.4375 638.886719 806.324219 637.796875 805.753906 636.230469 C 805.183594 634.679688 804.894531 632.449219 804.894531 629.542969 L 804.894531 590.457031 C 806.09375 589.28125 807.4375 588.117188 808.941406 586.980469 C 810.90625 585.476562 813.0625 584.179688 815.402344 583.089844 C 817.738281 582 820.246094 581.453125 822.949219 581.453125 C 826.585938 581.453125 829.503906 582.617188 831.746094 584.957031 C 833.976562 587.292969 835.089844 591.9375 835.089844 598.878906 L 835.089844 627.519531 C 835.089844 630.9375 834.859375 633.589844 834.386719 635.457031 C 833.914062 637.324219 832.910156 638.621094 831.359375 639.347656 C 829.808594 640.074219 827.261719 640.4375 823.738281 640.4375 L 823.738281 645.417969 L 862.488281 645.417969 L 862.488281 640.4375 C 859.058594 640.4375 856.527344 640.050781 854.867188 639.273438 C 853.207031 638.5 852.140625 637.175781 851.679688 635.3125 C 851.207031 633.445312 850.976562 630.851562 850.976562 627.53125 L 850.976562 590.640625 C 850.964844 590.496094 850.941406 590.371094 850.929688 590.226562 C 853.085938 588.359375 855.484375 586.519531 858.136719 584.726562 C 861.351562 582.542969 864.621094 581.453125 867.941406 581.453125 C 870.425781 581.453125 872.632812 581.972656 874.558594 583.003906 C 876.472656 584.046875 877.988281 585.828125 879.066406 588.375 C 880.15625 590.917969 880.703125 594.625 880.703125 599.5 L 880.703125 627.519531 C 880.703125 630.632812 880.519531 633.117188 880.15625 634.984375 C 879.792969 636.851562 878.859375 638.230469 877.355469 639.105469 C 875.855469 639.988281 873.394531 640.425781 869.964844 640.425781 L 869.964844 645.40625 L 907.625 645.40625 L 907.625 640.425781 C 904.210938 640.425781 901.714844 640.011719 900.160156 639.175781 C 898.609375 638.351562 897.617188 636.972656 897.207031 635.054688 Z M 897.191406 635.054688 " fill-opacity="1" fill-rule="nonzero"/><g clip-path="url(#125a703b2a)"><path fill="#f0ad33" d="M 728.566406 357.285156 C 769.074219 357.285156 804.628906 336.027344 824.671875 304.058594 C 807.960938 318.296875 786.292969 326.890625 762.617188 326.890625 C 709.738281 326.890625 666.878906 284.011719 666.878906 231.136719 C 666.878906 178.257812 709.117188 136.011719 761.441406 135.382812 C 751.03125 132.230469 739.992188 130.535156 728.566406 130.535156 C 665.96875 130.535156 615.207031 181.289062 615.207031 243.910156 C 615.207031 306.527344 665.957031 357.285156 728.566406 357.285156 Z M 728.566406 357.285156 " fill-opacity="1" fill-rule="nonzero"/></g><path fill="#f0ad33" d="M 738.941406 218.433594 L 708.183594 222.894531 L 730.445312 244.589844 L 725.1875 275.226562 L 752.691406 260.765625 L 780.199219 275.226562 L 774.953125 244.589844 L 797.199219 222.894531 L 766.445312 218.433594 L 752.691406 190.558594 Z M 738.941406 218.433594 " fill-opacity="1" fill-rule="nonzero"/><path fill="#f0ad33" d="M 1296.136719 479.035156 C 1271.886719 476.003906 1256.097656 485.433594 1246.527344 495.199219 C 1252.378906 469.070312 1249.652344 440.121094 1240.078125 415.589844 C 1239.996094 415.382812 1239.910156 415.179688 1239.8125 414.972656 C 1246.453125 400.828125 1246.527344 382.128906 1235.585938 369.742188 C 1197.316406 326.429688 1150.421875 351.238281 1150.421875 351.238281 C 1210.972656 365.199219 1170.296875 404.839844 1192.375 424.921875 C 1210.925781 441.792969 1228.21875 434.398438 1237.4375 419.394531 C 1242.976562 439.863281 1243.691406 461.714844 1240.078125 482.535156 C 1236.394531 503.089844 1226.980469 524.324219 1208.429688 535.132812 C 1188.3125 546.804688 1163.496094 543.8125 1141.941406 537.617188 C 1121.789062 531.691406 1098.332031 525.414062 1077.390625 531.863281 C 1069.453125 534.308594 1062.234375 539.75 1056.539062 545.3125 C 1054.464844 547.191406 1052.515625 549.398438 1050.902344 551.796875 C 1026.375 547.714844 999.742188 546.269531 976.257812 551.132812 C 959.707031 554.390625 945.214844 563.492188 936.890625 578.449219 C 922.035156 603.898438 928.03125 638.570312 952.992188 655.175781 C 960.167969 660.035156 968.1875 663.160156 976.539062 664.917969 C 984.171875 673.679688 996.035156 679.558594 1007.898438 677.097656 C 1054.269531 667.511719 1055.714844 624.066406 1055.714844 624.066406 C 1021.140625 661.453125 1009.523438 616.382812 986.257812 623.90625 C 967.171875 630.085938 965.015625 644.824219 971.375 657.320312 C 956.773438 650.96875 944.816406 639.769531 940.683594 623.542969 C 934.914062 602.082031 944.449219 577.164062 964.058594 566.402344 C 986.863281 555.035156 1020.5 552.753906 1048.660156 555.808594 C 1048.636719 555.859375 1048.613281 555.917969 1048.589844 555.964844 C 1042.675781 568.328125 1047.714844 584.15625 1058.585938 591.707031 C 1069.453125 599.71875 1083.691406 598.070312 1094.027344 590.238281 C 1101.796875 584.871094 1107.925781 576.628906 1099.566406 568.546875 C 1090.695312 560.765625 1078.6875 557.90625 1067.636719 555.046875 C 1066.074219 554.707031 1064.5 554.367188 1062.910156 554.039062 C 1065.78125 551.363281 1069.066406 548.890625 1072.023438 546.9375 C 1090.296875 535.230469 1118.832031 544.636719 1138.328125 550.136719 C 1181.675781 563.054688 1224.824219 554.914062 1242.175781 509.816406 C 1278.285156 495.359375 1276.710938 535.738281 1299.457031 536.089844 C 1339.5625 536.695312 1326.355469 482.816406 1296.136719 479.035156 Z M 1087.898438 565.527344 C 1091.167969 567.105469 1094.34375 569.007812 1096.671875 571.429688 C 1102.777344 577.464844 1096.476562 582.582031 1091.121094 585.9375 C 1085.414062 589.609375 1078.398438 591.523438 1071.839844 589.863281 C 1062.511719 587.730469 1055.542969 578.191406 1055.699219 568.957031 C 1055.726562 564.691406 1057.214844 560.65625 1059.785156 557.324219 C 1062.195312 557.722656 1064.546875 558.171875 1066.8125 558.644531 C 1074.070312 560.28125 1081.292969 562.367188 1087.886719 565.515625 Z M 1087.898438 565.527344 " fill-opacity="1" fill-rule="nonzero"/><path fill="#f0ad33" d="M 442.921875 353.503906 C 455.332031 364.640625 472.488281 370.589844 489.140625 367.441406 C 500.394531 365.390625 511 359.441406 517.808594 350.023438 C 528.570312 335.386719 525.78125 316.695312 514.996094 303.171875 C 512.199219 299.5625 509.035156 296.335938 505.605469 293.476562 C 500.09375 287.003906 491.378906 282.617188 482.691406 284.449219 C 449.261719 291.453125 448.289062 322.804688 448.289062 322.804688 C 473.15625 295.765625 481.636719 328.257812 498.410156 322.78125 C 507.507812 319.8125 511.253906 314.152344 511.421875 308.066406 C 512.925781 311.667969 514.078125 315.375 514.671875 319.179688 C 519.710938 347.988281 484.183594 362.664062 461.183594 352.507812 C 433.75 340.621094 424.445312 308.769531 437.167969 282.496094 C 443.382812 269.492188 454.980469 259.070312 468.804688 254.757812 C 477.929688 251.714844 487.648438 249.726562 497.207031 250.1875 C 511.675781 250.71875 523.285156 258.390625 531.890625 269.675781 C 543.738281 285.015625 552.210938 303.367188 563.914062 319.316406 C 582.660156 346.148438 609.683594 361.378906 642.8125 358.773438 C 643.089844 358.75 643.332031 358.53125 643.371094 358.242188 C 643.40625 357.902344 643.175781 357.597656 642.835938 357.5625 C 611.402344 354.195312 589.191406 339.964844 572.214844 313.535156 C 555.542969 289.441406 544.40625 254.527344 513.058594 245.605469 C 502.769531 242.832031 492 243.789062 481.929688 246.34375 C 472.066406 248.976562 462.3125 252.1875 453.792969 257.929688 C 422.6875 278.277344 413.125 327.445312 442.910156 353.515625 Z M 442.921875 353.503906 " fill-opacity="1" fill-rule="nonzero"/></svg>