<?xml version="1.0" standalone="no"?>
<!DOCTYPE svg PUBLIC "-//W3C//DTD SVG 1.1//EN" "http://www.w3.org/Graphics/SVG/1.1/DTD/svg11.dtd">
<svg xmlns="http://www.w3.org/2000/svg" xmlns:xlink="http://www.w3.org/1999/xlink" id="Layer_2" data-name="Layer 2" viewBox="0 0 130.14 130.14" width="130.13999938964844" height="130.13999938964844">
  <defs>
    <style>
      .cls-1 {
        fill: #6d77f3;
      }

      .cls-2 {
        clip-path: url(#clippath-1);
      }

      .cls-3 {
        fill: #99a5ff;
      }
    </style>
    <clipPath id="clippath-1">
      <path class="cls-3" d="M67.04,65.93h-.03c-1.51,0-2.74,1.23-2.74,2.74v9.64c0,1.25.83,2.37,2.04,2.69,2.06.54,3.61,2.03,3.61,4.87v18.56c0,3.52-2.78,4.91-5.87,4.91-1.28,0-2.45-.21-3.52-.64v-58.33c0-5.03-6.09-7.53-9.62-3.95l-4.81,4.87c-2.37,2.4-3.7,5.64-3.7,9.02v51.56c0,4.23,2.79,7.98,6.87,9.11,5.08,1.4,10.57,2.34,15.86,2.34,12.05,0,22.61-5.02,22.61-20.17v-17.6c0-13.34-10.14-19.63-20.7-19.63ZM120.07,111.95v1.13c0,2.83-1.15,5.38-3,7.24-1.85,1.85-4.41,3.01-7.24,3.01-10.23,0-18.45-6.73-18.45-20.91v-62.64c0-5.03,6.08-7.54,9.62-3.96l5.24,5.31c1.89,1.91,2.95,4.5,2.95,7.2v29.97h3c2.26,0,4.09,1.84,4.09,4.1v7.07c0,2.26-1.83,4.09-4.09,4.09h-3v7.8c0,4.58,2.78,6.4,6.51,6.4h.16c2.32-.01,4.21,1.88,4.21,4.2ZM38.61,112.08v1.1c0,5.57-4.56,10.14-10.14,10.15h-.11c-10.23,0-18.45-6.73-18.45-20.91v-34.76c0-2.7,1.06-5.29,2.95-7.21l5.24-5.3c3.53-3.59,9.62-1.08,9.62,3.95v19.19h2.81c2.26,0,4.09,1.84,4.09,4.1v7.07c0,2.26-1.83,4.09-4.09,4.09h-2.81v7.8c0,4.58,2.78,6.4,6.51,6.4h.04c2.39-.01,4.34,1.93,4.34,4.33ZM10.69,44.88l-.04-.17c-1.85-7.5,2.72-15.08,10.22-16.93L102.7,7.57c2.77-.68,5.56,1.01,6.25,3.77l.33,1.35c1.58,6.38-2.32,12.84-8.7,14.41L15.89,48.02c-2.3.57-4.63-.84-5.2-3.14Z"/>
    </clipPath>
  </defs>
  <g id="Layer_1-2" data-name="Layer 1">
    <g>
      <path class="cls-3" d="M67.04,65.93h-.03c-1.51,0-2.74,1.23-2.74,2.74v9.64c0,1.25.83,2.37,2.04,2.69,2.06.54,3.61,2.03,3.61,4.87v18.56c0,3.52-2.78,4.91-5.87,4.91-1.28,0-2.45-.21-3.52-.64v-58.33c0-5.03-6.09-7.53-9.62-3.95l-4.81,4.87c-2.37,2.4-3.7,5.64-3.7,9.02v51.56c0,4.23,2.79,7.98,6.87,9.11,5.08,1.4,10.57,2.34,15.86,2.34,12.05,0,22.61-5.02,22.61-20.17v-17.6c0-13.34-10.14-19.63-20.7-19.63ZM120.07,111.95v1.13c0,2.83-1.15,5.38-3,7.24-1.85,1.85-4.41,3.01-7.24,3.01-10.23,0-18.45-6.73-18.45-20.91v-62.64c0-5.03,6.08-7.54,9.62-3.96l5.24,5.31c1.89,1.91,2.95,4.5,2.95,7.2v29.97h3c2.26,0,4.09,1.84,4.09,4.1v7.07c0,2.26-1.83,4.09-4.09,4.09h-3v7.8c0,4.58,2.78,6.4,6.51,6.4h.16c2.32-.01,4.21,1.88,4.21,4.2ZM38.61,112.08v1.1c0,5.57-4.56,10.14-10.14,10.15h-.11c-10.23,0-18.45-6.73-18.45-20.91v-34.76c0-2.7,1.06-5.29,2.95-7.21l5.24-5.3c3.53-3.59,9.62-1.08,9.62,3.95v19.19h2.81c2.26,0,4.09,1.84,4.09,4.1v7.07c0,2.26-1.83,4.09-4.09,4.09h-2.81v7.8c0,4.58,2.78,6.4,6.51,6.4h.04c2.39-.01,4.34,1.93,4.34,4.33ZM10.69,44.88l-.04-.17c-1.85-7.5,2.72-15.08,10.22-16.93L102.7,7.57c2.77-.68,5.56,1.01,6.25,3.77l.33,1.35c1.58,6.38-2.32,12.84-8.7,14.41L15.89,48.02c-2.3.57-4.63-.84-5.2-3.14Z"/>
      <g class="cls-2">
        <rect class="cls-1" width="130.14" height="130.14"/>
      </g>
    </g>
  </g>
</svg>